<?xml version="1.0" encoding="utf-8"?>
<svg viewBox="0 0 500 500" xmlns="http://www.w3.org/2000/svg">
  <path d="M 55.02900161743164 193.71499328613282 L 54.87900161743164 188.9149932861328 Q 50.52900161743164 188.1649932861328 47.97900161743164 187.4149932861328 Q 46.92900161743164 186.96499328613282 46.02900161743164 184.4149932861328 Q 45.12900161743164 181.8649932861328 44.97900161743164 180.21499328613282 L 45.42900161743164 179.31499328613282 Q 49.62900161743164 180.06499328613282 54.729001617431635 180.3649932861328 Q 53.979001617431635 164.9149932861328 50.82900161743164 145.1149932861328 Q 48.57900161743164 144.6649932861328 44.37900161743164 143.46499328613282 Q 43.02900161743164 142.56499328613282 42.20400161743164 140.5399932861328 Q 41.37900161743164 138.51499328613284 41.37900161743164 137.6149932861328 Q 41.37900161743164 136.71499328613282 41.67900161743164 136.71499328613282 Q 44.52900161743164 137.01499328613284 49.92900161743164 137.31499328613282 L 60.42900161743164 130.1149932861328 L 64.32900161743164 132.51499328613284 Q 64.92900161743164 136.26499328613284 65.07900161743164 137.76499328613284 Q 87.42900161743164 137.1649932861328 101.52900161743163 130.1149932861328 L 104.07900161743164 134.01499328613284 L 99.12900161743164 146.9149932861328 Q 88.47900161743163 148.26499328613284 80.37900161743164 148.26499328613284 Q 72.27900161743165 148.26499328613284 66.12900161743164 147.6649932861328 Q 66.57900161743164 155.31499328613282 66.57900161743164 161.9899932861328 Q 66.57900161743164 168.6649932861328 65.97900161743163 180.3649932861328 Q 79.92900161743164 179.6149932861328 91.17900161743164 175.2649932861328 L 92.52900161743165 177.81499328613282 L 87.87900161743164 188.1649932861328 Q 78.87900161743164 189.81499328613282 68.67900161743164 189.81499328613282 L 65.22900161743163 189.81499328613282 Q 63.57900161743164 207.6649932861328 59.37900161743164 233.7649932861328 Q 58.32900161743164 234.96499328613282 56.00400161743164 235.7899932861328 Q 53.67900161743164 236.6149932861328 52.104001617431635 236.6149932861328 Q 50.52900161743164 236.6149932861328 50.52900161743164 235.8649932861328 L 50.979001617431635 234.21499328613282 Q 55.02900161743164 219.3649932861328 55.02900161743164 193.71499328613282 Z M 165.62197723388672 132.96499328613282 Q 164.87197723388672 140.9149932861328 164.87197723388672 149.76499328613284 Q 164.87197723388672 186.21499328613282 178.3719772338867 236.31499328613282 Q 177.9219772338867 236.6149932861328 177.1719772338867 236.7649932861328 Q 173.27197723388673 236.7649932861328 171.3219772338867 234.5149932861328 Q 166.22197723388672 223.71499328613282 160.22197723388672 202.71499328613282 Q 150.02197723388673 204.3649932861328 141.24697723388672 204.3649932861328 Q 132.47197723388672 204.3649932861328 129.02197723388673 204.06499328613282 Q 121.97197723388672 218.7649932861328 113.27197723388672 234.5149932861328 Q 110.57197723388671 236.7649932861328 107.72197723388672 236.7649932861328 Q 104.87197723388672 236.7649932861328 104.87197723388672 236.31499328613282 Q 110.57197723388671 225.06499328613282 119.87197723388672 202.8649932861328 Q 118.07197723388671 202.56499328613282 114.17197723388672 201.6649932861328 Q 111.92197723388672 199.2649932861328 111.92197723388672 195.06499328613282 Q 111.92197723388672 194.0149932861328 112.37197723388672 194.0149932861328 Q 112.82197723388671 194.0149932861328 114.17197723388672 194.46499328613282 Q 117.32197723388671 195.3649932861328 122.57197723388671 195.96499328613282 Q 136.97197723388672 160.71499328613282 142.52197723388673 138.81499328613282 L 159.02197723388673 130.1149932861328 Q 163.22197723388672 130.1149932861328 165.62197723388672 132.96499328613282 Z M 132.62197723388672 196.4149932861328 Q 146.72197723388672 196.1149932861328 157.6719772338867 192.96499328613282 Q 151.52197723388673 169.71499328613282 149.87197723388672 153.3649932861328 Q 141.3219772338867 176.9149932861328 132.62197723388672 196.4149932861328 Z M 223.27047119140624 234.5149932861328 Q 221.17047119140625 236.6149932861328 216.82047119140626 236.6149932861328 Q 215.77047119140624 236.6149932861328 215.77047119140624 236.1649932861328 Q 219.07047119140626 216.21499328613282 219.07047119140626 193.4899932861328 Q 219.07047119140626 170.7649932861328 217.27047119140624 150.51499328613284 Q 214.72047119140626 150.6649932861328 208.19547119140626 150.6649932861328 Q 201.67047119140625 150.6649932861328 193.57047119140626 149.31499328613282 L 191.17047119140625 145.4149932861328 L 196.87047119140624 132.51499328613284 Q 206.32047119140626 137.6149932861328 223.49547119140624 137.6149932861328 Q 240.67047119140625 137.6149932861328 256.87047119140624 133.56499328613282 Q 257.47047119140626 133.56499328613282 257.47047119140626 136.1149932861328 Q 257.47047119140626 138.6649932861328 255.22047119140626 140.6149932861328 Q 243.22047119140626 145.71499328613282 232.27047119140624 148.26499328613284 Q 229.57047119140626 210.06499328613282 223.27047119140624 234.5149932861328 Z M 331.7689270019531 176.6149932861328 L 327.2689270019531 186.96499328613282 Q 318.5689270019531 188.6149932861328 310.6189270019531 188.6149932861328 Q 302.66892700195314 188.6149932861328 296.8189270019531 188.1649932861328 Q 296.66892700195314 190.2649932861328 296.66892700195314 194.1649932861328 Q 296.66892700195314 208.8649932861328 300.9439270019531 218.3899932861328 Q 305.21892700195315 227.9149932861328 313.84392700195315 227.9149932861328 Q 322.46892700195315 227.9149932861328 327.71892700195315 221.5399932861328 Q 332.96892700195315 215.1649932861328 337.0189270019531 200.9149932861328 Q 337.3189270019531 199.71499328613282 338.0689270019531 199.71499328613282 Q 340.16892700195314 199.71499328613282 342.71892700195315 201.81499328613282 Q 335.8189270019531 236.6149932861328 311.3689270019531 236.6149932861328 Q 285.41892700195314 236.6149932861328 284.5189270019531 186.81499328613282 L 281.5189270019531 186.21499328613282 Q 280.16892700195314 185.7649932861328 278.8939270019531 183.1399932861328 Q 277.6189270019531 180.5149932861328 277.46892700195315 179.0149932861328 L 278.21892700195315 178.1149932861328 Q 282.2689270019531 178.71499328613282 284.66892700195314 178.8649932861328 Q 285.41892700195314 155.76499328613284 287.3689270019531 144.3649932861328 L 283.7689270019531 143.46499328613282 Q 282.41892700195314 142.56499328613282 281.59392700195315 140.5399932861328 Q 280.7689270019531 138.51499328613284 280.7689270019531 137.6149932861328 Q 280.7689270019531 136.71499328613282 281.0689270019531 136.71499328613282 L 291.71892700195315 137.6149932861328 L 302.66892700195314 130.1149932861328 L 306.5689270019531 132.51499328613284 L 304.7689270019531 137.76499328613284 Q 327.5689270019531 137.46499328613282 342.1189270019531 130.1149932861328 L 344.66892700195314 134.01499328613284 L 339.71892700195315 146.9149932861328 Q 329.21892700195315 148.26499328613284 319.7689270019531 148.26499328613284 Q 310.3189270019531 148.26499328613284 302.5189270019531 147.21499328613282 Q 298.91892700195314 162.51499328613284 297.41892700195314 179.31499328613282 L 300.8689270019531 179.31499328613282 Q 317.0689270019531 179.31499328613282 330.41892700195314 174.06499328613282 Z M 382.2168334960937 193.71499328613282 L 382.06683349609375 190.2649932861328 Q 378.4668334960937 189.81499328613282 373.06683349609375 188.46499328613282 Q 370.81683349609375 186.3649932861328 370.81683349609375 182.31499328613282 Q 370.81683349609375 180.96499328613282 371.3418334960937 180.96499328613282 Q 371.86683349609376 180.96499328613282 373.2168334960937 181.2649932861328 Q 376.36683349609376 182.31499328613282 381.9168334960938 182.9149932861328 Q 381.31683349609375 171.5149932861328 379.44183349609375 159.88999328613284 Q 377.56683349609375 148.26499328613284 376.06683349609375 142.26499328613284 L 374.56683349609375 136.26499328613284 L 387.61683349609376 130.1149932861328 L 391.51683349609374 132.51499328613284 Q 393.76683349609374 145.8649932861328 393.76683349609374 158.9149932861328 Q 393.76683349609374 171.96499328613282 393.01683349609374 183.21499328613282 Q 413.26683349609374 182.31499328613282 426.61683349609376 176.31499328613282 Q 426.4668334960937 173.1649932861328 426.4668334960937 161.9899932861328 Q 426.4668334960937 150.81499328613282 429.31683349609375 132.51499328613284 L 433.2168334960937 130.1149932861328 L 445.9668334960937 136.26499328613284 Q 439.06683349609375 153.96499328613282 439.06683349609375 190.71499328613282 Q 439.06683349609375 218.0149932861328 441.31683349609375 236.31499328613282 Q 441.31683349609375 236.7649932861328 440.11683349609376 236.7649932861328 Q 436.2168334960937 236.7649932861328 434.26683349609374 234.5149932861328 Q 428.86683349609376 207.06499328613282 427.36683349609376 187.8649932861328 Q 411.4668334960937 191.1649932861328 398.11683349609376 191.1649932861328 L 392.4168334960938 191.1649932861328 Q 390.76683349609374 208.56499328613282 386.56683349609375 233.7649932861328 Q 385.51683349609374 234.96499328613282 383.19183349609375 235.7899932861328 Q 380.86683349609376 236.6149932861328 379.2918334960938 236.6149932861328 Q 377.7168334960937 236.6149932861328 377.7168334960937 235.8649932861328 L 378.1668334960938 234.21499328613282 Q 382.2168334960937 219.3649932861328 382.2168334960937 193.71499328613282 Z" transform="matrix(1.1607860326766968, 0, 0, 1, -40.19702911376953, 64.27195739746094)" style="fill: rgb(255, 255, 255); paint-order: fill; white-space: pre;"/>
</svg>